<?xml version="1.0" encoding="UTF-8" standalone="no"?>
<!-- Created with Inkscape (http://www.inkscape.org/) -->

<svg
   xmlns:dc="http://purl.org/dc/elements/1.1/"
   xmlns:cc="http://creativecommons.org/ns#"
   xmlns:rdf="http://www.w3.org/1999/02/22-rdf-syntax-ns#"
   xmlns:svg="http://www.w3.org/2000/svg"
   xmlns="http://www.w3.org/2000/svg"
   xmlns:xlink="http://www.w3.org/1999/xlink"
   xmlns:sodipodi="http://sodipodi.sourceforge.net/DTD/sodipodi-0.dtd"
   xmlns:inkscape="http://www.inkscape.org/namespaces/inkscape"
   width="22"
   height="22"
   id="svg2"
   version="1.1"
   inkscape:version="0.48.1 r9760"
   sodipodi:docname="tucan-mono-light.svg"
   inkscape:export-filename="/home/crak/tucan-mono-light.png"
   inkscape:export-xdpi="90"
   inkscape:export-ydpi="90">
  <defs
     id="defs4">
    <linearGradient
       id="linearGradient3859">
      <stop
         style="stop-color:#000000;stop-opacity:1;"
         offset="0"
         id="stop3861" />
      <stop
         id="stop3871"
         offset="1"
         style="stop-color:#363636;stop-opacity:1;" />
    </linearGradient>
    <linearGradient
       inkscape:collect="always"
       xlink:href="#linearGradient3859"
       id="linearGradient3865"
       x1="2.3242776"
       y1="11.061577"
       x2="19.420081"
       y2="11.061577"
       gradientUnits="userSpaceOnUse"
       gradientTransform="translate(-0.13253012,1030.561)" />
    <linearGradient
       inkscape:collect="always"
       xlink:href="#linearGradient3859-9"
       id="linearGradient3865-4"
       x1="2.3242776"
       y1="11.061577"
       x2="19.42008"
       y2="11.061577"
       gradientUnits="userSpaceOnUse" />
    <linearGradient
       id="linearGradient3859-9">
      <stop
         style="stop-color:#000000;stop-opacity:1;"
         offset="0"
         id="stop3861-1" />
      <stop
         id="stop3871-9"
         offset="1"
         style="stop-color:#242424;stop-opacity:1;" />
    </linearGradient>
  </defs>
  <sodipodi:namedview
     id="base"
     pagecolor="#ffffff"
     bordercolor="#666666"
     borderopacity="1.0"
     inkscape:pageopacity="0.0"
     inkscape:pageshadow="2"
     inkscape:zoom="15.045591"
     inkscape:cx="11.033134"
     inkscape:cy="11.099453"
     inkscape:document-units="px"
     inkscape:current-layer="layer1"
     showgrid="false"
     inkscape:window-width="1024"
     inkscape:window-height="515"
     inkscape:window-x="0"
     inkscape:window-y="27"
     inkscape:window-maximized="1" />
  <metadata
     id="metadata7">
    <rdf:RDF>
      <cc:Work
         rdf:about="">
        <dc:format>image/svg+xml</dc:format>
        <dc:type
           rdf:resource="http://purl.org/dc/dcmitype/StillImage" />
        <dc:title></dc:title>
      </cc:Work>
    </rdf:RDF>
  </metadata>
  <g
     inkscape:label="Layer 1"
     inkscape:groupmode="layer"
     id="layer1"
     transform="translate(0,-1030.3622)">
    <path
       style="opacity:0.6;fill:#ffffff;fill-opacity:1;fill-rule:nonzero;stroke:none"
       d="m 9.1440109,1032.8929 c -1.22333,0.016 -2.415413,0.2357 -3.46875,0.9063 -1.3530724,0.867 -2.7519135,1.9552 -3.2187505,3.5625 -0.386533,1.243 -0.290023,2.572 -0.125,3.8437 0.762232,-1.2373 2.3845765,-1.32 3.6875005,-1.25 1.245534,0.082 2.496157,0.2971 3.71875,0.5 0.4771211,0.9362 0.2958531,2.3611 -0.375,2.6563 -0.686539,0.669 -1.326868,1.3641 -2.1875,1.8125 -2.177578,1.4058 -4.0553185,3.4227 -4.9687505,5.875 5.3444935,0.029 10.7180056,0.065 16.0624996,0.094 1.021755,-0.9102 1.048778,-2.4406 1,-3.7187 -0.01299,-0.7064 -0.201908,-1.3749 -0.28125,-2.0625 0.104063,-0.8654 -0.01498,-1.7508 -0.1875,-2.5938 0.116471,-1.733 -0.19278,-3.4542 -0.625,-5.125 -0.864945,-1.5977 -2.121537,-3.17 -3.875,-3.8125 -0.59758,-0.3674 -1.361388,0.2037 -1.6875,0.3125 -0.391411,-0.5821 -1.171082,-0.7502 -1.812499,-0.9375 -0.545854,-0.053 -1.1001921,-0.071 -1.6562501,-0.062 z m 0.125,0.5 c 0.617828,-0.015 1.2440481,0.1378 1.9375001,0.375 l 1.062499,0.6875 c 0.02481,-0.068 1.248033,-0.1544 1.34375,-0.1875 0.473848,-0.07 1.306103,0.8926 1.6875,1.25 0.244572,0.4096 0.22429,0.8951 0.1875,1.375 0.672623,0.2883 1.203545,1.2071 1.78125,1.875 0.15902,0.4235 0.08115,0.6904 0.09375,1 0.251578,0.4994 0.362805,0.9973 0.46875,1.4063 0.10464,0.4039 0.205198,0.7204 0.28125,1.1562 0.09383,0.6392 0.09799,1.3985 -0.03125,2.0625 -0.403256,0.9927 -0.862404,1.1944 -1.3125,1.625 -1.300027,0.2502 -2.359832,-0.2155 -3.46875,-0.5625 -0.81681,-0.5778 -1.458704,-1.1087 -1.937499,-1.75 -0.478796,-0.6412 -0.80918,-1.3967 -0.90625,-2.4687 -0.01125,-0.373 -0.302763,-1.2838 -0.21875,-1.625 l -1.6250001,-0.062 c -1.733175,-0.2039 -4.9418836,-0.9863 -5.8900607,0.5937 -0.187698,-1.4481 0.023111,-2.9141 1.0150603,-4.1875 1.7154924,-1.8283 3.0771404,-2.3349 4.4062504,-2.3437 0.400308,-0.1316 0.754302,-0.21 1.125,-0.2188 z m -0.59375,12.4375 c 0.176349,0.743 0.393331,1.3195 0.65625,1.7813 0.26292,0.4617 0.577818,0.8112 0.9062501,1.0937 0.32843,0.2825 0.689616,0.5136 1.0625,0.7188 0.372884,0.2052 0.759973,0.3952 1.156249,0.625 l -8.3437495,0 c 1.1862954,-1.2667 1.9144094,-3.0982 4.5625004,-4.2188 z"
       id="rect3085-9"
       inkscape:connector-curvature="0"
       sodipodi:nodetypes="cccccccccccccccccccccccccccccccccccccccccssccc" />
    <path
       style="opacity:0.7;fill:url(#linearGradient3865);fill-opacity:1;fill-rule:nonzero;stroke:none"
       d="m 9.1487199,1032.6235 c -1.22333,0.016 -2.415413,0.2356 -3.46875,0.9062 -1.353072,0.867 -2.751913,1.9552 -3.21875,3.5625 -0.386533,1.243 -0.290023,2.5721 -0.125,3.8438 0.762232,-1.2373 2.384576,-1.32 3.6875,-1.25 1.245534,0.082 2.496157,0.2971 3.71875,0.5 0.4771211,0.9361 0.2958531,2.361 -0.375,2.6562 -0.686539,0.669 -1.3268673,1.3641 -2.1875,1.8125 -2.177578,1.4058 -4.055318,3.4227 -4.96875,5.875 5.3444937,0.029 10.7180061,0.065 16.0625001,0.094 1.021755,-0.9102 1.048778,-2.4407 1,-3.7188 -0.01299,-0.7064 -0.201908,-1.3749 -0.28125,-2.0625 0.104063,-0.8654 -0.01498,-1.7507 -0.1875,-2.5937 0.116471,-1.733 -0.19278,-3.4542 -0.625,-5.125 -0.864945,-1.5977 -2.121537,-3.17 -3.875,-3.8125 -0.59758,-0.3674 -1.361388,0.2037 -1.6875,0.3125 -0.391411,-0.5821 -1.171083,-0.7502 -1.8125,-0.9375 -0.545854,-0.053 -1.1001921,-0.071 -1.6562501,-0.062 z m 0.125,0.5 c 0.617828,-0.015 1.2440481,0.1378 1.9375001,0.375 l 1.0625,0.6875 c 0.02481,-0.068 1.248033,-0.1544 1.34375,-0.1875 0.473848,-0.07 1.306103,0.8926 1.6875,1.25 0.244572,0.4096 0.22429,0.8951 0.1875,1.375 0.672623,0.2883 1.203545,1.2071 1.78125,1.875 0.15902,0.4235 0.08115,0.6904 0.09375,1 0.251578,0.4994 0.362805,0.9972 0.46875,1.4062 0.10464,0.4039 0.205198,0.7205 0.28125,1.1563 0.09383,0.6392 0.09799,1.3985 -0.03125,2.0625 -0.403256,0.9927 -0.862404,1.1944 -1.3125,1.625 -1.300027,0.2502 -2.359832,-0.2155 -3.46875,-0.5625 -0.81681,-0.5778 -1.458705,-1.1087 -1.9375,-1.75 -0.478796,-0.6412 -0.80918,-1.3968 -0.90625,-2.4688 -0.01125,-0.373 -0.302763,-1.2838 -0.21875,-1.625 l -1.6250001,-0.062 c -1.7331747,-0.2039 -4.9418832,-0.9862 -5.8900602,0.5938 -0.187698,-1.4481 0.023111,-2.9141 1.0150602,-4.1875 1.715492,-1.8283 3.0771403,-2.335 4.40625,-2.3438 0.400308,-0.1316 0.754302,-0.2099 1.125,-0.2187 z m -0.59375,12.4375 c 0.176349,0.743 0.393331,1.3194 0.65625,1.7812 0.26292,0.4617 0.577818,0.8113 0.9062501,1.0938 0.32843,0.2825 0.689616,0.5135 1.0625,0.7187 0.372884,0.2052 0.759973,0.3952 1.15625,0.625 l -8.3437501,0 c 1.186295,-1.2667 1.9144093,-3.0981 4.5625,-4.2187 z"
       id="rect3085"
       inkscape:connector-curvature="0"
       sodipodi:nodetypes="cccccccccccccccccccccccccccccccccccccccccssccc" />
  </g>
</svg>
